<svg width="128" height="27" viewBox="0 0 128 27" fill="none" xmlns="http://www.w3.org/2000/svg">
<path d="M35.4955 19.9963L41.7354 0.34846H44.045L50.69 19.9963H48.2319L46.341 14.0456H39.5609L37.778 19.9963H35.4955ZM40.1822 11.9281H45.6792L43.9909 6.48672C43.4687 4.8159 43.086 3.4578 42.8429 2.41242C42.6358 3.67224 42.3432 4.92312 41.965 6.16507L40.1822 11.9281Z" fill="#F5F5F5"/>
<path d="M52.1082 19.9963V5.763H53.9045V7.92077C54.3638 6.92007 54.7825 6.25888 55.1606 5.93723C55.5478 5.60664 55.98 5.44134 56.4572 5.44134C57.1235 5.44134 57.8034 5.70045 58.4967 6.21868L57.8214 8.45687C57.3261 8.10841 56.8444 7.93417 56.3762 7.93417C55.953 7.93417 55.5658 8.0816 55.2147 8.37645C54.8635 8.6713 54.6159 9.08231 54.4718 9.60947C54.2197 10.5298 54.0936 11.5081 54.0936 12.5446V19.9963H52.1082Z" fill="#F5F5F5"/>
<path d="M59.6717 3.12274V0.34846H61.6571V3.12274H59.6717ZM59.6717 19.9963V5.763H61.6571V19.9963H59.6717Z" fill="#F5F5F5"/>
<path d="M72.3946 18.2406C71.7283 18.9285 71.035 19.4468 70.3147 19.7952C69.5943 20.1437 68.847 20.3179 68.0726 20.3179C66.8481 20.3179 65.8711 19.9516 65.1418 19.2189C64.4124 18.4863 64.0478 17.499 64.0478 16.257C64.0478 15.435 64.2188 14.7068 64.561 14.0724C64.9032 13.4381 65.3714 12.9422 65.9657 12.5848C66.5599 12.2274 67.4603 11.9638 68.6669 11.794C70.2877 11.5617 71.4762 11.2848 72.2326 10.9631L72.2461 10.3466C72.2461 9.37269 72.0705 8.68917 71.7193 8.29604C71.2241 7.72421 70.4632 7.43829 69.4368 7.43829C68.5093 7.43829 67.816 7.63039 67.3568 8.01459C66.8976 8.38985 66.5599 9.10018 66.3438 10.1456L64.3854 9.8239C64.6645 8.29604 65.2273 7.18364 66.0737 6.48672C66.9291 5.7898 68.1492 5.44134 69.7339 5.44134C70.9675 5.44134 71.9354 5.67365 72.6378 6.13826C73.3401 6.59394 73.7813 7.16131 73.9614 7.84036C74.1505 8.51941 74.245 9.51118 74.245 10.8157V14.0322C74.245 16.2838 74.2855 17.7045 74.3666 18.2942C74.4566 18.8749 74.6277 19.4423 74.8798 19.9963H72.7998C72.5927 19.5048 72.4577 18.9196 72.3946 18.2406ZM72.2326 12.8528C71.5032 13.2102 70.4182 13.514 68.9776 13.7642C68.1402 13.9071 67.5549 14.0724 67.2217 14.2601C66.8886 14.4388 66.6275 14.6979 66.4384 15.0374C66.2583 15.368 66.1682 15.7522 66.1682 16.19C66.1682 16.8691 66.3798 17.4141 66.803 17.8251C67.2262 18.2272 67.8115 18.4282 68.5589 18.4282C69.2702 18.4282 69.914 18.245 70.4903 17.8787C71.0755 17.5124 71.5122 17.0254 71.8004 16.4178C72.0885 15.8013 72.2326 14.9079 72.2326 13.7374V12.8528Z" fill="#F5F5F5"/>
<path d="M83.3482 10.427C83.3482 7.07643 84.0911 4.50318 85.5768 2.70727C87.0625 0.902423 88.9128 0 91.1279 0C92.5595 0 93.8651 0.40207 95.0447 1.20621C96.2242 2.01035 97.1562 3.18082 97.8405 4.71762C98.5338 6.24548 98.8805 8.0682 98.8805 10.1858C98.8805 13.0985 98.2141 15.4707 96.8815 17.3024C95.4138 19.3217 93.4915 20.3313 91.1143 20.3313C88.7192 20.3313 86.7923 19.2949 85.3337 17.222C84.01 15.3457 83.3482 13.0807 83.3482 10.427ZM85.5633 10.4672C85.5633 12.8886 86.099 14.7694 87.1705 16.1096C88.251 17.4409 89.5611 18.1065 91.1008 18.1065C92.6766 18.1065 93.9957 17.432 95.0582 16.0828C96.1297 14.7336 96.6654 12.7501 96.6654 10.1322C96.6654 8.44346 96.3908 6.93347 95.8415 5.60217C95.4183 4.58359 94.7791 3.77052 93.9237 3.16295C93.0773 2.54644 92.1498 2.23819 91.1414 2.23819C89.5206 2.23819 88.1835 2.9083 87.13 4.24854C86.0855 5.58877 85.5633 7.66166 85.5633 10.4672Z" fill="#F5F5F5"/>
<path d="M100.569 15.7477L102.541 15.3725C102.658 16.3732 102.977 17.1192 103.5 17.6107C104.022 18.0931 104.715 18.3344 105.58 18.3344C106.444 18.3344 107.11 18.1244 107.579 17.7045C108.056 17.2756 108.294 16.735 108.294 16.0828C108.294 15.5199 108.092 15.0821 107.687 14.7694C107.407 14.5549 106.732 14.2869 105.661 13.9652C104.112 13.4917 103.076 13.0896 102.554 12.759C102.032 12.4284 101.627 11.9861 101.339 11.4322C101.05 10.8782 100.906 10.2483 100.906 9.54245C100.906 8.32731 101.298 7.34001 102.081 6.58054C102.865 5.82108 103.95 5.44134 105.336 5.44134C106.21 5.44134 106.975 5.5977 107.633 5.91042C108.299 6.22315 108.808 6.64308 109.159 7.17024C109.51 7.6974 109.753 8.4524 109.888 9.43524L107.943 9.75689C107.763 8.20222 106.912 7.42489 105.39 7.42489C104.526 7.42489 103.882 7.59912 103.459 7.94758C103.036 8.2871 102.824 8.72491 102.824 9.261C102.824 9.78816 103.027 10.2036 103.432 10.5074C103.675 10.6861 104.396 10.972 105.593 11.3652C107.241 11.8923 108.308 12.3123 108.794 12.625C109.28 12.9288 109.658 13.3487 109.929 13.8848C110.199 14.412 110.334 15.0419 110.334 15.7745C110.334 17.1326 109.897 18.2316 109.024 19.0715C108.159 19.9114 106.975 20.3313 105.472 20.3313C102.653 20.3313 101.019 18.8035 100.569 15.7477Z" fill="#F5F5F5"/>
<path d="M112.616 19.9963V0.34846H114.602V19.9963H112.616Z" fill="#F5F5F5"/>
<path d="M116.979 12.8796C116.979 10.4225 117.497 8.56855 118.532 7.31767C119.577 6.06678 120.896 5.44134 122.489 5.44134C124.056 5.44134 125.366 6.06678 126.42 7.31767C127.473 8.56855 128 10.3734 128 12.7322C128 15.2876 127.482 17.1907 126.447 18.4416C125.411 19.6925 124.092 20.3179 122.489 20.3179C120.914 20.3179 119.599 19.6925 118.546 18.4416C117.501 17.1818 116.979 15.3278 116.979 12.8796ZM119.018 12.8796C119.018 14.7202 119.356 16.0917 120.031 16.9941C120.707 17.8876 121.544 18.3344 122.543 18.3344C123.48 18.3344 124.281 17.8832 124.948 16.9807C125.623 16.0694 125.961 14.7023 125.961 12.8796C125.961 11.048 125.623 9.68541 124.948 8.79192C124.272 7.8895 123.435 7.43829 122.435 7.43829C121.49 7.43829 120.684 7.8895 120.018 8.79192C119.351 9.69435 119.018 11.0569 119.018 12.8796Z" fill="#F5F5F5"/>
<ellipse cx="22.782" cy="10.3206" rx="8.07252" ry="10.0108" fill="#D6FE62"/>
<path d="M8.74113 0.456512L16.3112 20.3641H1.17109L8.74113 0.456512Z" fill="#3038FF"/>
</svg>
